<?xml version="1.0" standalone="no"?>
<!DOCTYPE svg PUBLIC "-//W3C//DTD SVG 1.1//EN" "http://www.w3.org/Graphics/SVG/1.1/DTD/svg11.dtd">
<svg version="1.1" xmlns="http://www.w3.org/2000/svg" viewBox="0 0 278.49946327749876 167.69339422532505" width="835.4983898324963" height="503.08018267597515"><!-- svg-source:excalidraw --><metadata></metadata><defs><style class="style-fonts">
      </style></defs><g stroke-linecap="round" transform="translate(10 10) rotate(0 129.24973163874938 73.84669711266253)"><path d="M32 0 C104.58 0, 177.16 0, 226.5 0 M32 0 C84.31 0, 136.62 0, 226.5 0 M226.5 0 C247.83 0, 258.5 10.67, 258.5 32 M226.5 0 C247.83 0, 258.5 10.67, 258.5 32 M258.5 32 C258.5 60, 258.5 88, 258.5 115.69 M258.5 32 C258.5 60.08, 258.5 88.15, 258.5 115.69 M258.5 115.69 C258.5 137.03, 247.83 147.69, 226.5 147.69 M258.5 115.69 C258.5 137.03, 247.83 147.69, 226.5 147.69 M226.5 147.69 C150.73 147.69, 74.97 147.69, 32 147.69 M226.5 147.69 C186.58 147.69, 146.65 147.69, 32 147.69 M32 147.69 C10.67 147.69, 0 137.03, 0 115.69 M32 147.69 C10.67 147.69, 0 137.03, 0 115.69 M0 115.69 C0 91.4, 0 67.1, 0 32 M0 115.69 C0 94.1, 0 72.5, 0 32 M0 32 C0 10.67, 10.67 0, 32 0 M0 32 C0 10.67, 10.67 0, 32 0" stroke="#383c42" stroke-width="4" fill="none"></path></g><g stroke-linecap="round"><g transform="translate(28.572631800012687 44.30382232252417) rotate(0 31.161526600031607 39.54287479013837)" fill-rule="evenodd"><path d="M0 0 L0 79.09 L62.32 79.09 L62.32 0 L0 0" stroke="none" stroke-width="0" fill="#383c42" fill-rule="evenodd"></path><path d="M0 0 C0 17.68, 0 35.36, 0 79.09 M0 0 C0 28.85, 0 57.69, 0 79.09 M0 79.09 C19.25 79.09, 38.5 79.09, 62.32 79.09 M0 79.09 C17.91 79.09, 35.83 79.09, 62.32 79.09 M62.32 79.09 C62.32 60.4, 62.32 41.72, 62.32 0 M62.32 79.09 C62.32 59.89, 62.32 40.7, 62.32 0 M62.32 0 C48.82 0, 35.32 0, 0 0 M62.32 0 C46.95 0, 31.58 0, 0 0 M0 0 C0 0, 0 0, 0 0 M0 0 C0 0, 0 0, 0 0" stroke="#383c42" stroke-width="4" fill="none"></path></g></g><mask></mask><g stroke-linecap="round"><g transform="translate(28.572631800012687 29.260305803351926) rotate(0 31.161526600031607 1.2894463811414028)" fill-rule="evenodd"><path d="M0 0 L0 2.58 L62.32 2.58 L62.32 0 L0 0" stroke="none" stroke-width="0" fill="#383c42" fill-rule="evenodd"></path><path d="M0 0 C0 0.62, 0 1.25, 0 2.58 M0 0 C0 0.57, 0 1.13, 0 2.58 M0 2.58 C20.99 2.58, 41.98 2.58, 62.32 2.58 M0 2.58 C20.94 2.58, 41.87 2.58, 62.32 2.58 M62.32 2.58 C62.32 1.6, 62.32 0.62, 62.32 0 M62.32 2.58 C62.32 1.56, 62.32 0.55, 62.32 0 M62.32 0 C48.53 0, 34.73 0, 0 0 M62.32 0 C41.66 0, 20.99 0, 0 0 M0 0 C0 0, 0 0, 0 0 M0 0 C0 0, 0 0, 0 0" stroke="#383c42" stroke-width="4" fill="none"></path></g></g><mask></mask><g stroke-linecap="round"><g transform="translate(107.87329320950357 29.260305803351926) rotate(0 31.161526600031607 1.2894463811414028)" fill-rule="evenodd"><path d="M0 0 L0 2.58 L62.32 2.58 L62.32 0 L0 0" stroke="none" stroke-width="0" fill="#383c42" fill-rule="evenodd"></path><path d="M0 0 C0 0.96, 0 1.91, 0 2.58 M0 0 C0 0.86, 0 1.71, 0 2.58 M0 2.58 C21.48 2.58, 42.96 2.58, 62.32 2.58 M0 2.58 C24.32 2.58, 48.63 2.58, 62.32 2.58 M62.32 2.58 C62.32 1.82, 62.32 1.06, 62.32 0 M62.32 2.58 C62.32 1.55, 62.32 0.53, 62.32 0 M62.32 0 C45.06 0, 27.8 0, 0 0 M62.32 0 C44.88 0, 27.44 0, 0 0 M0 0 C0 0, 0 0, 0 0 M0 0 C0 0, 0 0, 0 0" stroke="#383c42" stroke-width="4" fill="none"></path></g></g><mask></mask><g stroke-linecap="round"><g transform="translate(186.74413096056605 29.260305803351926) rotate(0 31.161526600031607 1.2894463811414028)" fill-rule="evenodd"><path d="M0 0 L0 2.58 L62.32 2.58 L62.32 0 L0 0" stroke="none" stroke-width="0" fill="#383c42" fill-rule="evenodd"></path><path d="M0 0 C0 0.65, 0 1.3, 0 2.58 M0 0 C0 0.66, 0 1.33, 0 2.58 M0 2.58 C24.38 2.58, 48.75 2.58, 62.32 2.58 M0 2.58 C23.48 2.58, 46.95 2.58, 62.32 2.58 M62.32 2.58 C62.32 1.71, 62.32 0.84, 62.32 0 M62.32 2.58 C62.32 1.78, 62.32 0.98, 62.32 0 M62.32 0 C41.95 0, 21.58 0, 0 0 M62.32 0 C43.4 0, 24.48 0, 0 0 M0 0 C0 0, 0 0, 0 0 M0 0 C0 0, 0 0, 0 0" stroke="#383c42" stroke-width="4" fill="none"></path></g></g><mask></mask><g stroke-linecap="round"><g transform="translate(186.74413096056628 44.30382232252417) rotate(0 31.161526600031607 48.99878212631651)" fill-rule="evenodd"><path d="M0 0 L0 98 L62.32 98 L62.32 0 L0 0" stroke="none" stroke-width="0" fill="#383c42" fill-rule="evenodd"></path><path d="M0 0 C0 38.26, 0 76.52, 0 98 M0 0 C0 28.82, 0 57.65, 0 98 M0 98 C23.81 98, 47.62 98, 62.32 98 M0 98 C15.51 98, 31.01 98, 62.32 98 M62.32 98 C62.32 78.19, 62.32 58.38, 62.32 0 M62.32 98 C62.32 69.49, 62.32 40.98, 62.32 0 M62.32 0 C39.28 0, 16.23 0, 0 0 M62.32 0 C43.8 0, 25.28 0, 0 0 M0 0 C0 0, 0 0, 0 0 M0 0 C0 0, 0 0, 0 0" stroke="#383c42" stroke-width="4" fill="none"></path></g></g><mask></mask><g stroke-linecap="round"><g transform="translate(107.8732932095038 44.30382232252417) rotate(0 31.161526600031607 19.341646528832825)" fill-rule="evenodd"><path d="M0 0 L0 38.68 L62.32 38.68 L62.32 0 L0 0" stroke="none" stroke-width="0" fill="#383c42" fill-rule="evenodd"></path><path d="M0 0 C0 9.54, 0 19.08, 0 38.68 M0 0 C0 12.08, 0 24.16, 0 38.68 M0 38.68 C22.4 38.68, 44.81 38.68, 62.32 38.68 M0 38.68 C24.31 38.68, 48.61 38.68, 62.32 38.68 M62.32 38.68 C62.32 30.61, 62.32 22.53, 62.32 0 M62.32 38.68 C62.32 23.45, 62.32 8.22, 62.32 0 M62.32 0 C43.4 0, 24.48 0, 0 0 M62.32 0 C42.42 0, 22.52 0, 0 0 M0 0 C0 0, 0 0, 0 0 M0 0 C0 0, 0 0, 0 0" stroke="#383c42" stroke-width="4" fill="none"></path></g></g><mask></mask><g stroke-linecap="round"><g transform="translate(46.30354718854255 87.96144959138799) rotate(0 13.430611211501741 -4.114752478725457)"><path d="M0 0 C3.46 3.46, 6.92 6.92, 10.26 10.26 M0 0 C2.41 2.41, 4.82 4.82, 10.26 10.26 M10.26 10.26 C14.88 2.26, 19.5 -5.73, 26.86 -18.49 M10.26 10.26 C15.32 1.5, 20.37 -7.26, 26.86 -18.49" stroke="#ffffff" stroke-width="4" fill="none"></path></g></g><mask></mask><g stroke-linecap="round"><g transform="translate(125.80171119765191 68.15522652931925) rotate(0 13.233108611883381 -4.509757677962263)"><path d="M0 0 C2.56 2.56, 5.12 5.12, 9.87 9.87 M0 0 C3.87 3.87, 7.74 7.74, 9.87 9.87 M9.87 9.87 C16.42 -1.49, 22.98 -12.84, 26.47 -18.89 M9.87 9.87 C15.4 0.28, 20.94 -9.31, 26.47 -18.89" stroke="#ffffff" stroke-width="4" fill="none"></path></g></g><mask></mask><g stroke-linecap="round"><g transform="translate(204.27912232559675 80.2844630580209) rotate(0 13.626535235001029 -3.722904431726853)"><path d="M0 0 C2.69 2.69, 5.38 5.38, 10.65 10.65 M0 0 C3.14 3.14, 6.27 6.27, 10.65 10.65 M10.65 10.65 C14.1 4.68, 17.55 -1.3, 27.25 -18.1 M10.65 10.65 C16.49 0.54, 22.34 -9.58, 27.25 -18.1" stroke="#ffffff" stroke-width="4" fill="none"></path></g></g><mask></mask></svg>